# xmcd CD database file
#
# Track frame offsets:
#	150
#	10112
#	23570
#	34539
#	46213
#	59324
#	70967
#	81696
#	95329
#	105962
#	115501
#	128200
#	140662
#	150936
#	161456
#	173120
#	183236
#	194577
#	205133
#	219280
#
# Disc length: 3087 seconds
#
# Revision: 0
# Processed by: cddbd v1.5.1PL0 Copyright (c) Steve Scherf et al.
# Submitted via: CDex 1.51
#
DISCID=000c0d14
DTITLE=Lucha via - Te traigo estas flores
DYEAR=1900
DGENRE=Country
TTITLE0=te traigo estas flores
TTITLE1=cuando ya no me quieras
TTITLE2=la palma
TTITLE3=no me amenaces
TTITLE4=maria de los guardias
TTITLE5=te voy a olvidar
TTITLE6=colorcito de sandia
TTITLE7=la mano de dios
TTITLE8=rio revelde
TTITLE9=el rey
TTITLE10=te solte la rienda
TTITLE11=rodo mi corazon
TTITLE12=una estralla lloro
TTITLE13=golpe traidor
TTITLE14=dos corazones errantes
TTITLE15=mirada que facina
TTITLE16=que voy a hacer sin ti
TTITLE17=cariñito
TTITLE18=corrido de cananea
TTITLE19=los dos amantes
EXTD=
EXTT0=
EXTT1=
EXTT2=
EXTT3=
EXTT4=
EXTT5=
EXTT6=
EXTT7=
EXTT8=
EXTT9=
EXTT10=
EXTT11=
EXTT12=
EXTT13=
EXTT14=
EXTT15=
EXTT16=
EXTT17=
EXTT18=
EXTT19=
PLAYORDER=
